<?xml version='1.0' encoding='UTF-8'?>
<!DOCTYPE svg PUBLIC "-//W3C//DTD SVG 1.0//EN" "http://www.w3.org/TR/2001/REC-SVG-20010904/DTD/svg10.dtd">
<svg viewBox="0 0 1050 840" xmlns="http://www.w3.org/2000/svg" xmlns:inkspace="http://www.inkscape.org/namespaces/inkscape" xmlns:xlink="http://www.w3.org/1999/xlink">
  <defs id="defs_block">
    <filter height="1.504" id="filter_blur" inkspace:collect="always" width="1.1575" x="-0.07875" y="-0.252">
      <feGaussianBlur id="feGaussianBlur3780" inkspace:collect="always" stdDeviation="4.2" />
    </filter>
  </defs>
  <title>blockdiag</title>
  <desc />
  <path d="M 161 46 L 445 46 A8,8 0 0 1 453 54 L 453 78 A8,8 0 0 1 445 86 L 161 86 A8,8 0 0 1 153 78 L 153 54 A8,8 0 0 1 161 46" fill="rgb(0,0,0)" stroke="rgb(0,0,0)" style="filter:url(#filter_blur);opacity:0.7;fill-opacity:1" />
  <rect fill="rgb(0,0,0)" height="40" stroke="rgb(0,0,0)" style="filter:url(#filter_blur);opacity:0.7;fill-opacity:1" width="300" x="603" y="46" />
  <rect fill="rgb(0,0,0)" height="40" stroke="rgb(0,0,0)" style="filter:url(#filter_blur);opacity:0.7;fill-opacity:1" width="300" x="603" y="126" />
  <rect fill="rgb(0,0,0)" height="40" stroke="rgb(0,0,0)" style="filter:url(#filter_blur);opacity:0.7;fill-opacity:1" width="300" x="603" y="206" />
  <rect fill="rgb(0,0,0)" height="40" stroke="rgb(0,0,0)" style="filter:url(#filter_blur);opacity:0.7;fill-opacity:1" width="300" x="603" y="286" />
  <rect fill="rgb(0,0,0)" height="40" stroke="rgb(0,0,0)" style="filter:url(#filter_blur);opacity:0.7;fill-opacity:1" width="300" x="603" y="366" />
  <rect fill="rgb(0,0,0)" height="40" stroke="rgb(0,0,0)" style="filter:url(#filter_blur);opacity:0.7;fill-opacity:1" width="300" x="603" y="446" />
  <rect fill="rgb(0,0,0)" height="40" stroke="rgb(0,0,0)" style="filter:url(#filter_blur);opacity:0.7;fill-opacity:1" width="300" x="603" y="526" />
  <rect fill="rgb(0,0,0)" height="40" stroke="rgb(0,0,0)" style="filter:url(#filter_blur);opacity:0.7;fill-opacity:1" width="300" x="603" y="606" />
  <rect fill="rgb(0,0,0)" height="40" stroke="rgb(0,0,0)" style="filter:url(#filter_blur);opacity:0.7;fill-opacity:1" width="300" x="603" y="686" />
  <rect fill="rgb(0,0,0)" height="40" stroke="rgb(0,0,0)" style="filter:url(#filter_blur);opacity:0.7;fill-opacity:1" width="300" x="603" y="766" />
  <path d="M 158 40 L 442 40 A8,8 0 0 1 450 48 L 450 72 A8,8 0 0 1 442 80 L 158 80 A8,8 0 0 1 150 72 L 150 48 A8,8 0 0 1 158 40" fill="rgb(255,255,255)" stroke="rgb(0,0,0)" />
  <text fill="rgb(0,0,0)" font-family="sans-serif" font-size="15" font-style="normal" font-weight="normal" text-anchor="middle" textLength="180" x="300.0" y="67">"habitat_geschiktheid"</text>
  <rect fill="rgb(255,255,255)" height="40" stroke="rgb(0,0,0)" width="300" x="600" y="40" />
  <text fill="rgb(0,0,0)" font-family="sans-serif" font-size="15" font-style="normal" font-weight="normal" text-anchor="middle" textLength="139" x="750.5" y="67">waterdiepte_meren</text>
  <rect fill="rgb(255,255,255)" height="40" stroke="rgb(0,0,0)" width="300" x="600" y="120" />
  <text fill="rgb(0,0,0)" font-family="sans-serif" font-size="15" font-style="normal" font-weight="normal" text-anchor="middle" textLength="130" x="750.0" y="147">watertemperatuur</text>
  <rect fill="rgb(255,255,255)" height="40" stroke="rgb(0,0,0)" width="300" x="600" y="200" />
  <text fill="rgb(0,0,0)" font-family="sans-serif" font-size="15" font-style="normal" font-weight="normal" text-anchor="middle" textLength="73" x="750.5" y="227">zuurgraad</text>
  <rect fill="rgb(255,255,255)" height="40" stroke="rgb(0,0,0)" width="300" x="600" y="280" />
  <text fill="rgb(0,0,0)" font-family="sans-serif" font-size="15" font-style="normal" font-weight="normal" text-anchor="middle" textLength="122" x="750.0" y="307">zuurstofgehalte</text>
  <rect fill="rgb(255,255,255)" height="40" stroke="rgb(0,0,0)" width="300" x="600" y="360" />
  <text fill="rgb(0,0,0)" font-family="sans-serif" font-size="15" font-style="normal" font-weight="normal" text-anchor="middle" textLength="122" x="750.0" y="387">chloridegehalte</text>
  <rect fill="rgb(255,255,255)" height="40" stroke="rgb(0,0,0)" width="300" x="600" y="440" />
  <text fill="rgb(0,0,0)" font-family="sans-serif" font-size="15" font-style="normal" font-weight="normal" text-anchor="middle" textLength="114" x="750.0" y="467">calciumgehalte</text>
  <rect fill="rgb(255,255,255)" height="40" stroke="rgb(0,0,0)" width="300" x="600" y="520" />
  <text fill="rgb(0,0,0)" font-family="sans-serif" font-size="15" font-style="normal" font-weight="normal" text-anchor="middle" textLength="155" x="750.5" y="547">orthofosfaatgehalte</text>
  <rect fill="rgb(255,255,255)" height="40" stroke="rgb(0,0,0)" width="300" x="600" y="600" />
  <text fill="rgb(0,0,0)" font-family="sans-serif" font-size="15" font-style="normal" font-weight="normal" text-anchor="middle" textLength="106" x="750.0" y="627">substraattype</text>
  <rect fill="rgb(255,255,255)" height="40" stroke="rgb(0,0,0)" width="300" x="600" y="680" />
  <text fill="rgb(0,0,0)" font-family="sans-serif" font-size="15" font-style="normal" font-weight="normal" text-anchor="middle" textLength="90" x="750.0" y="707">siltfractie</text>
  <rect fill="rgb(255,255,255)" height="40" stroke="rgb(0,0,0)" width="300" x="600" y="760" />
  <text fill="rgb(0,0,0)" font-family="sans-serif" font-size="15" font-style="normal" font-weight="normal" text-anchor="middle" textLength="196" x="750.0" y="787">schelpen_bedekkingsgraad</text>
  <path d="M 450 60 L 592 60" fill="none" stroke="rgb(0,0,0)" />
  <polygon fill="rgb(0,0,0)" points="599,60 592,56 592,64 599,60" stroke="rgb(0,0,0)" />
  <path d="M 450 60 L 525 60" fill="none" stroke="rgb(0,0,0)" />
  <path d="M 525 60 L 525 140" fill="none" stroke="rgb(0,0,0)" />
  <path d="M 525 140 L 592 140" fill="none" stroke="rgb(0,0,0)" />
  <polygon fill="rgb(0,0,0)" points="599,140 592,136 592,144 599,140" stroke="rgb(0,0,0)" />
  <path d="M 450 60 L 525 60" fill="none" stroke="rgb(0,0,0)" />
  <path d="M 525 60 L 525 220" fill="none" stroke="rgb(0,0,0)" />
  <path d="M 525 220 L 592 220" fill="none" stroke="rgb(0,0,0)" />
  <polygon fill="rgb(0,0,0)" points="599,220 592,216 592,224 599,220" stroke="rgb(0,0,0)" />
  <path d="M 450 60 L 525 60" fill="none" stroke="rgb(0,0,0)" />
  <path d="M 525 60 L 525 300" fill="none" stroke="rgb(0,0,0)" />
  <path d="M 525 300 L 592 300" fill="none" stroke="rgb(0,0,0)" />
  <polygon fill="rgb(0,0,0)" points="599,300 592,296 592,304 599,300" stroke="rgb(0,0,0)" />
  <path d="M 450 60 L 525 60" fill="none" stroke="rgb(0,0,0)" />
  <path d="M 525 60 L 525 380" fill="none" stroke="rgb(0,0,0)" />
  <path d="M 525 380 L 592 380" fill="none" stroke="rgb(0,0,0)" />
  <polygon fill="rgb(0,0,0)" points="599,380 592,376 592,384 599,380" stroke="rgb(0,0,0)" />
  <path d="M 450 60 L 525 60" fill="none" stroke="rgb(0,0,0)" />
  <path d="M 525 60 L 525 460" fill="none" stroke="rgb(0,0,0)" />
  <path d="M 525 460 L 592 460" fill="none" stroke="rgb(0,0,0)" />
  <polygon fill="rgb(0,0,0)" points="599,460 592,456 592,464 599,460" stroke="rgb(0,0,0)" />
  <path d="M 450 60 L 525 60" fill="none" stroke="rgb(0,0,0)" />
  <path d="M 525 60 L 525 540" fill="none" stroke="rgb(0,0,0)" />
  <path d="M 525 540 L 592 540" fill="none" stroke="rgb(0,0,0)" />
  <polygon fill="rgb(0,0,0)" points="599,540 592,536 592,544 599,540" stroke="rgb(0,0,0)" />
  <path d="M 450 60 L 525 60" fill="none" stroke="rgb(0,0,0)" />
  <path d="M 525 60 L 525 620" fill="none" stroke="rgb(0,0,0)" />
  <path d="M 525 620 L 592 620" fill="none" stroke="rgb(0,0,0)" />
  <polygon fill="rgb(0,0,0)" points="599,620 592,616 592,624 599,620" stroke="rgb(0,0,0)" />
  <path d="M 450 60 L 525 60" fill="none" stroke="rgb(0,0,0)" />
  <path d="M 525 60 L 525 700" fill="none" stroke="rgb(0,0,0)" />
  <path d="M 525 700 L 592 700" fill="none" stroke="rgb(0,0,0)" />
  <polygon fill="rgb(0,0,0)" points="599,700 592,696 592,704 599,700" stroke="rgb(0,0,0)" />
  <path d="M 450 60 L 525 60" fill="none" stroke="rgb(0,0,0)" />
  <path d="M 525 60 L 525 780" fill="none" stroke="rgb(0,0,0)" />
  <path d="M 525 780 L 592 780" fill="none" stroke="rgb(0,0,0)" />
  <polygon fill="rgb(0,0,0)" points="599,780 592,776 592,784 599,780" stroke="rgb(0,0,0)" />
  <rect fill="white" height="15" stroke="rgb(0,0,0)" width="34" x="508" y="38" />
  <text fill="rgb(0,0,0)" font-family="sans-serif" font-size="11" font-style="normal" font-weight="normal" text-anchor="middle" textLength="18" x="525.0" y="51">min</text>
</svg>
